<svg width="457" height="408" viewBox="0 0 457 408" fill="none" xmlns="http://www.w3.org/2000/svg">
<rect x="4" y="4" width="449" height="399.153" fill="white"/>
<rect x="4" y="4" width="449" height="399.153" stroke="#4B4848" stroke-width="8"/>
<rect width="441" height="292.153" transform="translate(8 8)" fill="#50A4B3"/>
<path d="M202.441 133.576H118.356V178.746H160.746V203.763H105.847C97.505 203.763 87.0847 195.762 87.0847 186.39V120.373C87.0847 106.28 99.35 104.435 109.322 103C119.294 101.565 230.237 105.78 230.237 105.78V246.153H272.627V139.831L321.271 178.746L372 139.831V246.153H413V62H399.797L321.271 126.627L244.136 62H105.847C65.2175 62 44 79.5275 44 120.373V186.39C44 227.128 69.83 246.153 105.847 246.153H202.441V133.576Z" fill="white"/>
<path d="M93.504 354.658C95.187 355.831 95.901 357.769 95.901 364.195V365.776C95.901 366.541 95.289 367.153 94.524 367.153H86.466C85.701 367.153 85.089 366.541 85.089 365.776V360.013C85.089 359.248 84.426 358.636 83.661 358.636H59.946C59.181 358.636 58.569 359.248 58.569 360.013V365.776C58.569 366.541 57.957 367.153 57.192 367.153H49.032C48.267 367.153 47.655 366.541 47.655 365.776V332.83C47.655 332.065 48.267 331.453 49.032 331.453H80.295C94.269 331.453 95.901 332.677 95.901 345.019C95.901 349.099 95.136 351.088 93.453 352.465C92.739 353.026 92.79 354.097 93.504 354.658ZM83.661 349.711C84.426 349.711 85.038 349.099 85.038 348.334V341.755C85.038 340.99 84.426 340.378 83.661 340.378H59.946C59.181 340.378 58.569 340.99 58.569 341.755V348.334C58.569 349.099 59.181 349.711 59.946 349.711H83.661ZM113.735 353.281C112.97 353.281 112.358 353.893 112.358 354.658V356.851C112.358 357.616 112.97 358.228 113.735 358.228H146.273C147.038 358.228 147.65 358.84 147.65 359.605V365.725C147.65 366.49 147.038 367.102 146.273 367.102L102.821 367.153C102.056 367.153 101.444 366.541 101.444 365.776V332.83C101.444 332.065 102.056 331.453 102.821 331.453H146.273C147.038 331.453 147.65 332.065 147.65 332.83V339.001C147.65 339.766 147.038 340.378 146.222 340.378H113.735C112.97 340.378 112.358 341.041 112.358 341.806V343.948C112.358 344.713 112.97 345.325 113.735 345.325H145.304C146.069 345.325 146.732 345.937 146.732 346.702V351.904C146.732 352.669 146.069 353.281 145.304 353.281H113.735ZM190.575 332.83C190.575 332.065 191.187 331.453 191.952 331.453H200.061C200.826 331.453 201.438 332.065 201.438 332.83V365.776C201.438 366.541 200.826 367.153 200.061 367.153H186.648C186.24 367.153 185.883 367 185.577 366.694L166.503 345.376C165.687 344.407 164.106 345.019 164.106 346.294V365.776C164.106 366.541 163.494 367.153 162.729 367.153H154.569C153.804 367.153 153.192 366.541 153.192 365.776V332.83C153.192 332.065 153.804 331.453 154.569 331.453H166.911C167.319 331.453 167.676 331.606 167.931 331.912L188.127 354.505C188.994 355.474 190.575 354.862 190.575 353.587V332.83ZM244.095 332.83C244.095 332.065 244.707 331.453 245.472 331.453H253.581C254.346 331.453 254.958 332.065 254.958 332.83V365.776C254.958 366.541 254.346 367.153 253.581 367.153H245.472C244.707 367.153 244.095 366.541 244.095 365.776V354.658C244.095 353.893 243.432 353.281 242.667 353.281H219.87C219.105 353.281 218.493 353.893 218.493 354.658V365.776C218.493 366.541 217.881 367.153 217.116 367.153H208.956C208.191 367.153 207.579 366.541 207.579 365.776V332.83C207.579 332.065 208.191 331.453 208.956 331.453H217.116C217.881 331.453 218.493 332.065 218.493 332.83V343.948C218.493 344.713 219.105 345.325 219.87 345.325H242.667C243.432 345.325 244.095 344.713 244.095 343.948V332.83ZM285.344 330.484C309.11 330.484 310.079 331.453 310.079 349.303C310.079 367.153 309.161 368.122 285.344 368.122C261.476 368.122 260.507 367.153 260.507 349.303C260.507 331.453 261.527 330.484 285.344 330.484ZM297.788 359.197C298.553 359.197 299.165 358.585 299.165 357.82V340.786C299.165 340.021 298.553 339.409 297.788 339.409H272.798C272.033 339.409 271.421 340.021 271.421 340.786V357.82C271.421 358.585 272.033 359.197 272.798 359.197H297.788ZM326.569 357.82C326.569 358.585 327.181 359.197 327.946 359.197H355.537C356.302 359.197 356.914 359.86 356.914 360.625V365.776C356.914 366.541 356.302 367.153 355.537 367.153H317.032C316.267 367.153 315.655 366.541 315.655 365.776V332.83C315.655 332.065 316.267 331.453 317.032 331.453H325.192C325.957 331.453 326.569 332.065 326.569 332.83V357.82ZM385.216 331.453C408.982 331.453 409.951 332.422 409.951 349.303C409.951 366.184 409.033 367.102 385.216 367.102L361.756 367.153C360.991 367.153 360.379 366.541 360.379 365.776V332.83C360.379 332.065 360.991 331.453 361.756 331.453H385.216ZM397.66 358.228C398.425 358.228 399.037 357.616 399.037 356.851V341.806C399.037 341.041 398.425 340.378 397.66 340.378H372.67C371.905 340.378 371.293 341.041 371.293 341.806V356.851C371.293 357.616 371.905 358.228 372.67 358.228H397.66Z" fill="#4B4848"/>
</svg>
